<svg width="112" height="44" viewBox="0 0 112 44" fill="none" xmlns="http://www.w3.org/2000/svg">
<g opacity="0.5">
<rect width="112" height="44" fill="white" fill-opacity="0.01"/>
<g clip-path="url(#clip0_110_2119)">
<rect width="32" height="32" transform="translate(40 6)" fill="white" fill-opacity="0.01"/>
<path d="M61.9998 8.99739C62.1312 8.99741 62.2613 9.02326 62.3826 9.07356C62.5041 9.12398 62.6149 9.19821 62.7078 9.29134C62.8008 9.38407 62.8742 9.49432 62.9246 9.61555C62.975 9.73705 63.0018 9.86781 63.0018 9.99934C63.0017 10.1308 62.975 10.2607 62.9246 10.3822C62.8742 10.5036 62.801 10.6145 62.7078 10.7074L51.4139 21.9993L62.7078 33.2913C62.8955 33.4791 63.0008 33.7339 63.0008 33.9993C63.0007 34.2648 62.8956 34.5196 62.7078 34.7074C62.5201 34.8951 62.2653 35.0003 61.9998 35.0003C61.7343 35.0003 61.4796 34.895 61.2918 34.7074L49.2918 22.7074C49.1987 22.6145 49.1244 22.5036 49.074 22.3822C49.0237 22.2608 48.9979 22.1307 48.9979 21.9993C48.9979 21.8678 49.0236 21.737 49.074 21.6156C49.1244 21.4942 49.1987 21.3842 49.2918 21.2913L61.2918 9.29134C61.3846 9.19827 61.4946 9.12397 61.616 9.07356C61.7375 9.02315 61.8683 8.99739 61.9998 8.99739Z" fill="white"/>
</g>
</g>
<defs>
<clipPath id="clip0_110_2119">
<rect width="32" height="32" fill="white" transform="translate(40 6)"/>
</clipPath>
</defs>
</svg>
