<svg width="112" height="44" viewBox="0 0 112 44" fill="none" xmlns="http://www.w3.org/2000/svg">
<g opacity="0.5">
<rect width="112" height="44" fill="white" fill-opacity="0.01"/>
<g clip-path="url(#clip0_110_2121)">
<rect width="32" height="32" transform="translate(40 6)" fill="white" fill-opacity="0.01"/>
<path d="M49.9998 8.99739C50.1312 8.99741 50.2613 9.02326 50.3826 9.07356C50.5041 9.12398 50.6149 9.19821 50.7078 9.29134L62.7078 21.2913C62.8008 21.3841 62.8742 21.4943 62.9246 21.6156C62.975 21.737 63.0018 21.8678 63.0018 21.9993C63.0017 22.1308 62.975 22.2607 62.9246 22.3822C62.8742 22.5036 62.801 22.6145 62.7078 22.7074L50.7078 34.7074C50.5201 34.8951 50.2653 35.0003 49.9998 35.0003C49.7343 35.0003 49.4796 34.895 49.2918 34.7074C49.1041 34.5196 48.9989 34.2648 48.9988 33.9993C48.9988 33.7338 49.104 33.4791 49.2918 33.2913L60.5858 21.9993L49.2918 10.7074C49.1987 10.6145 49.1244 10.5036 49.074 10.3822C49.0237 10.2608 48.9979 10.1307 48.9979 9.99934C48.9979 9.86781 49.0236 9.73705 49.074 9.61555C49.1244 9.49416 49.1987 9.38417 49.2918 9.29134C49.3846 9.19827 49.4946 9.12397 49.616 9.07356C49.7375 9.02315 49.8683 8.99739 49.9998 8.99739Z" fill="white"/>
</g>
</g>
<defs>
<clipPath id="clip0_110_2121">
<rect width="32" height="32" fill="white" transform="translate(40 6)"/>
</clipPath>
</defs>
</svg>
