<svg width="40" height="40" viewBox="0 0 40 40" fill="none" xmlns="http://www.w3.org/2000/svg">
<g clip-path="url(#clip0_13_946)">
<path d="M6.5625 0C6.81114 0 7.0496 0.0987721 7.22541 0.274587C7.40123 0.450403 7.5 0.68886 7.5 0.9375V1.875H22.5V0.9375C22.5 0.68886 22.5988 0.450403 22.7746 0.274587C22.9504 0.0987721 23.1889 0 23.4375 0C23.6861 0 23.9246 0.0987721 24.1004 0.274587C24.2762 0.450403 24.375 0.68886 24.375 0.9375V1.875H26.25C27.2446 1.875 28.1984 2.27009 28.9016 2.97335C29.6049 3.67661 30 4.63044 30 5.625V26.25C30 27.2446 29.6049 28.1984 28.9016 28.9016C28.1984 29.6049 27.2446 30 26.25 30H3.75C2.75544 30 1.80161 29.6049 1.09835 28.9016C0.395088 28.1984 0 27.2446 0 26.25V5.625C0 4.63044 0.395088 3.67661 1.09835 2.97335C1.80161 2.27009 2.75544 1.875 3.75 1.875H5.625V0.9375C5.625 0.68886 5.72377 0.450403 5.89959 0.274587C6.0754 0.0987721 6.31386 0 6.5625 0ZM3.75 3.75C3.25272 3.75 2.77581 3.94754 2.42417 4.29917C2.07254 4.65081 1.875 5.12772 1.875 5.625V26.25C1.875 26.7473 2.07254 27.2242 2.42417 27.5758C2.77581 27.9275 3.25272 28.125 3.75 28.125H26.25C26.7473 28.125 27.2242 27.9275 27.5758 27.5758C27.9275 27.2242 28.125 26.7473 28.125 26.25V5.625C28.125 5.12772 27.9275 4.65081 27.5758 4.29917C27.2242 3.94754 26.7473 3.75 26.25 3.75H3.75Z" fill="#F4EDE7"/>
<path d="M4.6875 7.5C4.6875 7.25136 4.78627 7.0129 4.96209 6.83709C5.1379 6.66127 5.37636 6.5625 5.625 6.5625H24.375C24.6236 6.5625 24.8621 6.66127 25.0379 6.83709C25.2137 7.0129 25.3125 7.25136 25.3125 7.5V9.375C25.3125 9.62364 25.2137 9.8621 25.0379 10.0379C24.8621 10.2137 24.6236 10.3125 24.375 10.3125H5.625C5.37636 10.3125 5.1379 10.2137 4.96209 10.0379C4.78627 9.8621 4.6875 9.62364 4.6875 9.375V7.5ZM20.625 14.0625C20.625 13.8139 20.7238 13.5754 20.8996 13.3996C21.0754 13.2238 21.3139 13.125 21.5625 13.125H23.4375C23.6861 13.125 23.9246 13.2238 24.1004 13.3996C24.2762 13.5754 24.375 13.8139 24.375 14.0625V15.9375C24.375 16.1861 24.2762 16.4246 24.1004 16.6004C23.9246 16.7762 23.6861 16.875 23.4375 16.875H21.5625C21.3139 16.875 21.0754 16.7762 20.8996 16.6004C20.7238 16.4246 20.625 16.1861 20.625 15.9375V14.0625ZM15 14.0625C15 13.8139 15.0988 13.5754 15.2746 13.3996C15.4504 13.2238 15.6889 13.125 15.9375 13.125H17.8125C18.0611 13.125 18.2996 13.2238 18.4754 13.3996C18.6512 13.5754 18.75 13.8139 18.75 14.0625V15.9375C18.75 16.1861 18.6512 16.4246 18.4754 16.6004C18.2996 16.7762 18.0611 16.875 17.8125 16.875H15.9375C15.6889 16.875 15.4504 16.7762 15.2746 16.6004C15.0988 16.4246 15 16.1861 15 15.9375V14.0625ZM5.625 19.6875C5.625 19.4389 5.72377 19.2004 5.89959 19.0246C6.0754 18.8488 6.31386 18.75 6.5625 18.75H8.4375C8.68614 18.75 8.9246 18.8488 9.10041 19.0246C9.27623 19.2004 9.375 19.4389 9.375 19.6875V21.5625C9.375 21.8111 9.27623 22.0496 9.10041 22.2254C8.9246 22.4012 8.68614 22.5 8.4375 22.5H6.5625C6.31386 22.5 6.0754 22.4012 5.89959 22.2254C5.72377 22.0496 5.625 21.8111 5.625 21.5625V19.6875ZM11.25 19.6875C11.25 19.4389 11.3488 19.2004 11.5246 19.0246C11.7004 18.8488 11.9389 18.75 12.1875 18.75H14.0625C14.3111 18.75 14.5496 18.8488 14.7254 19.0246C14.9012 19.2004 15 19.4389 15 19.6875V21.5625C15 21.8111 14.9012 22.0496 14.7254 22.2254C14.5496 22.4012 14.3111 22.5 14.0625 22.5H12.1875C11.9389 22.5 11.7004 22.4012 11.5246 22.2254C11.3488 22.0496 11.25 21.8111 11.25 21.5625V19.6875Z" fill="#F4EDE7"/>
</g>
<defs>
<clipPath id="clip0_13_946">
<rect width="30" height="30" fill="white"/>
</clipPath>
</defs>
</svg>
