<svg width="30" height="30" viewBox="0 0 30 30" fill="none" xmlns="http://www.w3.org/2000/svg">
<g clip-path="url(#clip0_288_2761)">
<path d="M15 28.125C11.519 28.125 8.18064 26.7422 5.71922 24.2808C3.25781 21.8194 1.875 18.481 1.875 15C1.875 11.519 3.25781 8.18064 5.71922 5.71922C8.18064 3.25781 11.519 1.875 15 1.875C18.481 1.875 21.8194 3.25781 24.2808 5.71922C26.7422 8.18064 28.125 11.519 28.125 15C28.125 18.481 26.7422 21.8194 24.2808 24.2808C21.8194 26.7422 18.481 28.125 15 28.125ZM15 30C18.9782 30 22.7936 28.4196 25.6066 25.6066C28.4196 22.7936 30 18.9782 30 15C30 11.0218 28.4196 7.20644 25.6066 4.3934C22.7936 1.58035 18.9782 0 15 0C11.0218 0 7.20644 1.58035 4.3934 4.3934C1.58035 7.20644 0 11.0218 0 15C0 18.9782 1.58035 22.7936 4.3934 25.6066C7.20644 28.4196 11.0218 30 15 30Z" fill="#FFF8C5"/>
<path d="M20.5688 9.31875C20.5554 9.33169 20.5429 9.34547 20.5312 9.36L14.0194 17.6569L10.095 13.7306C9.82842 13.4822 9.47583 13.347 9.11152 13.3534C8.74721 13.3598 8.39961 13.5074 8.14196 13.7651C7.88431 14.0227 7.73672 14.3703 7.7303 14.7346C7.72387 15.099 7.8591 15.4515 8.1075 15.7181L13.0687 20.6812C13.2024 20.8147 13.3616 20.9198 13.5367 20.9904C13.7119 21.0609 13.8995 21.0955 14.0883 21.092C14.2771 21.0885 14.4633 21.047 14.6357 20.97C14.8081 20.893 14.9633 20.782 15.0919 20.6438L22.5769 11.2875C22.8317 11.02 22.9711 10.6629 22.9648 10.2935C22.9585 9.92408 22.8071 9.57197 22.5432 9.3133C22.2794 9.05464 21.9244 8.9102 21.5549 8.91122C21.1854 8.91224 20.8312 9.05863 20.5688 9.31875Z" fill="#FFF8C5"/>
</g>
<defs>
<clipPath id="clip0_288_2761">
<rect width="30" height="30" fill="white"/>
</clipPath>
</defs>
</svg>
