<svg width="44" height="44" viewBox="0 0 44 44" fill="none" xmlns="http://www.w3.org/2000/svg">
<path d="M19.1875 34.1875V27.6157C19.1875 27.1563 19.6563 26.6875 20.125 26.6875H23.875C24.3438 26.6875 24.8125 27.1563 24.8125 27.625V34.1875C24.8125 34.4362 24.9113 34.6746 25.0871 34.8504C25.2629 35.0263 25.5014 35.125 25.75 35.125H33.25C33.4986 35.125 33.7371 35.0263 33.9129 34.8504C34.0887 34.6746 34.1875 34.4362 34.1875 34.1875V21.0625C34.1877 20.9393 34.1637 20.8173 34.1167 20.7034C34.0697 20.5895 34.0008 20.486 33.9138 20.3988L31.375 17.8619V11.6875C31.375 11.4389 31.2762 11.2004 31.1004 11.0246C30.9246 10.8488 30.6861 10.75 30.4375 10.75H28.5625C28.3139 10.75 28.0754 10.8488 27.8996 11.0246C27.7238 11.2004 27.625 11.4389 27.625 11.6875V14.1119L22.6638 9.14878C22.5767 9.06147 22.4732 8.9922 22.3593 8.94494C22.2454 8.89768 22.1233 8.87335 22 8.87335C21.8767 8.87335 21.7546 8.89768 21.6407 8.94494C21.5268 8.9922 21.4233 9.06147 21.3363 9.14878L10.0863 20.3988C9.99925 20.486 9.93029 20.5895 9.88332 20.7034C9.83635 20.8173 9.81228 20.9393 9.8125 21.0625V34.1875C9.8125 34.4362 9.91127 34.6746 10.0871 34.8504C10.2629 35.0263 10.5014 35.125 10.75 35.125H18.25C18.4986 35.125 18.7371 35.0263 18.9129 34.8504C19.0887 34.6746 19.1875 34.4362 19.1875 34.1875Z" fill="#F4EDE7"/>
</svg>
