<svg width="44" height="44" viewBox="0 0 44 44" fill="none" xmlns="http://www.w3.org/2000/svg">
<path d="M27.625 10.75C27.625 10.2527 27.8225 9.77581 28.1742 9.42417C28.5258 9.07254 29.0027 8.875 29.5 8.875H33.25C33.7473 8.875 34.2242 9.07254 34.5758 9.42417C34.9275 9.77581 35.125 10.2527 35.125 10.75V33.25H36.0625C36.3111 33.25 36.5496 33.3488 36.7254 33.5246C36.9012 33.7004 37 33.9389 37 34.1875C37 34.4361 36.9012 34.6746 36.7254 34.8504C36.5496 35.0262 36.3111 35.125 36.0625 35.125H7.9375C7.68886 35.125 7.4504 35.0262 7.27459 34.8504C7.09877 34.6746 7 34.4361 7 34.1875C7 33.9389 7.09877 33.7004 7.27459 33.5246C7.4504 33.3488 7.68886 33.25 7.9375 33.25H8.875V27.625C8.875 27.1277 9.07254 26.6508 9.42417 26.2992C9.77581 25.9475 10.2527 25.75 10.75 25.75H14.5C14.9973 25.75 15.4742 25.9475 15.8258 26.2992C16.1775 26.6508 16.375 27.1277 16.375 27.625V33.25H18.25V20.125C18.25 19.6277 18.4475 19.1508 18.7992 18.7992C19.1508 18.4475 19.6277 18.25 20.125 18.25H23.875C24.3723 18.25 24.8492 18.4475 25.2008 18.7992C25.5525 19.1508 25.75 19.6277 25.75 20.125V33.25H27.625V10.75ZM29.5 33.25H33.25V10.75H29.5V33.25ZM23.875 33.25V20.125H20.125V33.25H23.875ZM14.5 33.25V27.625H10.75V33.25H14.5Z" fill="#F4EDE7"/>
</svg>
