<svg width="30" height="30" viewBox="0 0 30 30" fill="none" xmlns="http://www.w3.org/2000/svg">
<g clip-path="url(#clip0_44_789)">
<path d="M20.1824 5.1827C20.2405 5.1245 20.3095 5.07832 20.3854 5.04681C20.4613 5.0153 20.5427 4.99908 20.6249 4.99908C20.7072 4.99908 20.7886 5.0153 20.8645 5.04681C20.9404 5.07832 21.0094 5.1245 21.0674 5.1827L24.8174 8.9327C24.8756 8.99076 24.9218 9.05973 24.9533 9.13566C24.9848 9.21159 25.0011 9.29299 25.0011 9.3752C25.0011 9.45741 24.9848 9.53881 24.9533 9.61474C24.9218 9.69068 24.8756 9.75964 24.8174 9.8177L12.3174 22.3177C12.2575 22.3773 12.186 22.424 12.1074 22.4552L5.85744 24.9552C5.74386 25.0007 5.61944 25.0118 5.49959 24.9872C5.37974 24.9626 5.26975 24.9034 5.18324 24.8169C5.09673 24.7304 5.03752 24.6204 5.01293 24.5006C4.98835 24.3807 4.99948 24.2563 5.04494 24.1427L7.54494 17.8927C7.5761 17.8141 7.62288 17.7427 7.68244 17.6827L20.1824 5.1827ZM19.0087 8.1252L21.8749 10.9915L23.4912 9.3752L20.6249 6.50895L19.0087 8.1252ZM20.9912 11.8752L18.1249 9.00895L9.99994 17.134V17.5002H10.6249C10.7907 17.5002 10.9497 17.566 11.0669 17.6833C11.1841 17.8005 11.2499 17.9594 11.2499 18.1252V18.7502H11.8749C12.0407 18.7502 12.1997 18.816 12.3169 18.9333C12.4341 19.0505 12.4999 19.2094 12.4999 19.3752V20.0002H12.8662L20.9912 11.8752ZM8.78994 18.344L8.65744 18.4765L6.74744 23.2527L11.5237 21.3427L11.6562 21.2102C11.537 21.1657 11.4342 21.0858 11.3616 20.9812C11.289 20.8767 11.25 20.7525 11.2499 20.6252V20.0002H10.6249C10.4592 20.0002 10.3002 19.9344 10.183 19.8171C10.0658 19.6999 9.99994 19.541 9.99994 19.3752V18.7502H9.37494C9.24767 18.7501 9.12345 18.7112 9.01891 18.6386C8.91437 18.566 8.83449 18.4632 8.78994 18.344Z" fill="#F4EDE7"/>
</g>
<defs>
<clipPath id="clip0_44_789">
<rect width="20" height="20" fill="white" transform="translate(5 5)"/>
</clipPath>
</defs>
</svg>
