<svg width="30" height="30" viewBox="0 0 30 30" fill="none" xmlns="http://www.w3.org/2000/svg">
<g clip-path="url(#clip0_44_795)">
<path d="M24.0674 5.18263C23.9502 5.06546 23.7913 4.99963 23.6256 4.99963C23.4598 4.99963 23.3009 5.06546 23.1837 5.18263L21.1249 7.24138L25.7587 11.8751L27.8174 9.81763C27.8756 9.75957 27.9218 9.6906 27.9533 9.61467C27.9848 9.53874 28.0011 9.45733 28.0011 9.37513C28.0011 9.29292 27.9848 9.21151 27.9533 9.13558C27.9218 9.05965 27.8756 8.99068 27.8174 8.93263L24.0674 5.18263ZM24.8749 12.7589L20.2412 8.12513L12.1162 16.2501H12.3749C12.5407 16.2501 12.6997 16.316 12.8169 16.4332C12.9341 16.5504 12.9999 16.7094 12.9999 16.8751V17.5001H13.6249C13.7907 17.5001 13.9497 17.566 14.0669 17.6832C14.1841 17.8004 14.2499 17.9594 14.2499 18.1251V18.7501H14.8749C15.0407 18.7501 15.1997 18.816 15.3169 18.9332C15.4341 19.0504 15.4999 19.2094 15.4999 19.3751V20.0001H16.1249C16.2907 20.0001 16.4497 20.066 16.5669 20.1832C16.6841 20.3004 16.7499 20.4594 16.7499 20.6251V20.8839L24.8749 12.7589ZM15.5399 22.0939C15.5136 22.0239 15.5001 21.9498 15.4999 21.8751V21.2501H14.8749C14.7092 21.2501 14.5502 21.1843 14.433 21.0671C14.3158 20.9499 14.2499 20.7909 14.2499 20.6251V20.0001H13.6249C13.4592 20.0001 13.3002 19.9343 13.183 19.8171C13.0658 19.6999 12.9999 19.5409 12.9999 19.3751V18.7501H12.3749C12.2092 18.7501 12.0502 18.6843 11.933 18.5671C11.8158 18.4499 11.7499 18.2909 11.7499 18.1251V17.5001H11.1249C11.0502 17.5 10.9761 17.4865 10.9062 17.4601L10.6824 17.6826C10.6229 17.7426 10.5761 17.814 10.5449 17.8926L8.04494 24.1426C7.99948 24.2562 7.98835 24.3806 8.01293 24.5005C8.03752 24.6203 8.09673 24.7303 8.18324 24.8168C8.26975 24.9033 8.37974 24.9626 8.49959 24.9871C8.61944 25.0117 8.74386 25.0006 8.85744 24.9551L15.1074 22.4551C15.186 22.424 15.2575 22.3772 15.3174 22.3176L15.5399 22.0951V22.0939Z" fill="#F4EDE7"/>
</g>
<defs>
<clipPath id="clip0_44_795">
<rect width="20" height="20" fill="white" transform="translate(8 5)"/>
</clipPath>
</defs>
</svg>
