<svg width="44" height="44" viewBox="0 0 44 44" fill="none" xmlns="http://www.w3.org/2000/svg">
<g clip-path="url(#clip0_13_277)">
<path d="M11.6875 7.9375C11.6875 7.68886 11.7863 7.4504 11.9621 7.27459C12.1379 7.09877 12.3763 7 12.625 7H31.375C31.6236 7 31.8621 7.09877 32.0379 7.27459C32.2137 7.4504 32.3125 7.68886 32.3125 7.9375C32.3125 8.94625 32.29 9.90625 32.2487 10.8175C32.9896 10.9402 33.6984 11.21 34.3334 11.611C34.9683 12.012 35.5165 12.536 35.9457 13.1523C36.3749 13.7685 36.6763 14.4645 36.8322 15.1991C36.9881 15.9336 36.9954 16.692 36.8535 17.4295C36.7117 18.1669 36.4236 18.8685 36.0063 19.4928C35.5889 20.1172 35.0508 20.6516 34.4237 21.0646C33.7965 21.4777 33.093 21.761 32.3546 21.8978C31.6162 22.0346 30.8579 22.0222 30.1244 21.8612C28.6431 25.3581 26.6031 27.0681 24.8125 27.5069V31.5812L27.4844 32.2487C27.8481 32.3387 28.1912 32.5019 28.4912 32.7269L31.9375 35.3125C32.0949 35.4306 32.2112 35.5952 32.2698 35.783C32.3285 35.9708 32.3266 36.1723 32.2644 36.359C32.2021 36.5456 32.0828 36.708 31.9231 36.823C31.7635 36.9381 31.5717 37 31.375 37H12.625C12.4282 37 12.2364 36.9381 12.0768 36.823C11.9172 36.708 11.7978 36.5456 11.7356 36.359C11.6734 36.1723 11.6715 35.9708 11.7301 35.783C11.7888 35.5952 11.9051 35.4306 12.0625 35.3125L15.5087 32.7269C15.8087 32.5019 16.1519 32.3387 16.5156 32.2487L19.1875 31.5812V27.5069C17.3969 27.0681 15.3569 25.3581 13.8756 21.8594C13.1417 22.0212 12.3828 22.0343 11.6438 21.8979C10.9047 21.7615 10.2005 21.4784 9.57269 21.0653C8.94488 20.6523 8.40621 20.1175 7.98849 19.4928C7.57077 18.8681 7.28248 18.1659 7.14064 17.4279C6.9988 16.6899 7.00629 15.931 7.16266 15.1959C7.31904 14.4608 7.62112 13.7645 8.05108 13.1481C8.48104 12.5318 9.03016 12.0078 9.666 11.6072C10.3018 11.2065 11.0115 10.9374 11.7531 10.8156C11.709 9.85689 11.6871 8.89725 11.6875 7.9375ZM11.8731 12.7C10.8947 12.879 10.0275 13.4394 9.46225 14.2578C8.897 15.0762 8.68002 16.0857 8.85904 17.0641C9.03806 18.0425 9.59842 18.9097 10.4168 19.4749C11.2353 20.0402 12.2447 20.2571 13.2231 20.0781C12.5987 18.1094 12.1206 15.6794 11.8731 12.7ZM30.7787 20.0781C31.7571 20.2571 32.7666 20.0402 33.585 19.4749C34.4034 18.9097 34.9638 18.0425 35.1428 17.0641C35.3218 16.0857 35.1048 15.0762 34.5396 14.2578C33.9743 13.4394 33.1071 12.879 32.1287 12.7C31.8794 15.6812 31.4012 18.1094 30.7787 20.0781ZM13.57 8.875C13.5831 9.84438 13.6187 10.7613 13.675 11.6294C13.9187 15.4319 14.5319 18.2781 15.3062 20.38C16.9262 24.775 19.1575 25.75 20.125 25.75C20.3736 25.75 20.6121 25.8488 20.7879 26.0246C20.9637 26.2004 21.0625 26.4389 21.0625 26.6875V31.5812C21.0625 31.9992 20.9228 32.4052 20.6656 32.7348C20.4085 33.0643 20.0486 33.2984 19.6431 33.4L16.9694 34.0675C16.848 34.0977 16.7339 34.1519 16.6337 34.2269L15.4375 35.125H28.5625L27.3662 34.2269C27.2655 34.1517 27.1508 34.0975 27.0287 34.0675L24.3569 33.4C23.9514 33.2984 23.5915 33.0643 23.3343 32.7348C23.0772 32.4052 22.9375 31.9992 22.9375 31.5812V26.6875C22.9375 26.4389 23.0363 26.2004 23.2121 26.0246C23.3879 25.8488 23.6263 25.75 23.875 25.75C24.8425 25.75 27.0737 24.775 28.6937 20.38C29.4681 18.28 30.0812 15.43 30.325 11.6294C30.3812 10.7613 30.4169 9.84438 30.43 8.875H13.57Z" fill="#F4EDE7"/>
</g>
<defs>
<clipPath id="clip0_13_277">
<rect width="30" height="30" fill="white" transform="translate(7 7)"/>
</clipPath>
</defs>
</svg>
