<svg width="44" height="44" viewBox="0 0 44 44" fill="none" xmlns="http://www.w3.org/2000/svg">
<g clip-path="url(#clip0_75_2192)">
<path d="M24.6344 8.96875C23.86 6.34375 20.14 6.34375 19.3656 8.96875L19.1781 9.60625C19.0624 9.99924 18.8602 10.3613 18.5864 10.666C18.3125 10.9707 17.9739 11.2102 17.5954 11.367C17.2169 11.5238 16.8082 11.5939 16.3991 11.5721C15.99 11.5503 15.591 11.4373 15.2312 11.2413L14.65 10.9225C12.2444 9.61375 9.61375 12.2444 10.9244 14.6481L11.2413 15.2312C12.0775 16.7688 11.2844 18.6831 9.60625 19.1781L8.96875 19.3656C6.34375 20.14 6.34375 23.86 8.96875 24.6344L9.60625 24.8219C9.99924 24.9376 10.3613 25.1398 10.666 25.4136C10.9707 25.6875 11.2102 26.0261 11.367 26.4046C11.5238 26.7831 11.5939 27.1918 11.5721 27.6009C11.5503 28.01 11.4373 28.409 11.2413 28.7687L10.9225 29.35C9.61375 31.7556 12.2444 34.3862 14.6481 33.0756L15.2312 32.7587C15.591 32.5627 15.99 32.4497 16.3991 32.4279C16.8082 32.4061 17.2169 32.4762 17.5954 32.633C17.9739 32.7898 18.3125 33.0293 18.5864 33.334C18.8602 33.6387 19.0624 34.0008 19.1781 34.3937L19.3656 35.0312C20.14 37.6562 23.86 37.6562 24.6344 35.0312L24.8219 34.3937C24.9376 34.0008 25.1398 33.6387 25.4136 33.334C25.6875 33.0293 26.0261 32.7898 26.4046 32.633C26.7831 32.4762 27.1918 32.4061 27.6009 32.4279C28.01 32.4497 28.409 32.5627 28.7687 32.7587L29.35 33.0775C31.7556 34.3862 34.3862 31.7556 33.0756 29.3519L32.7587 28.7687C32.5627 28.409 32.4497 28.01 32.4279 27.6009C32.4061 27.1918 32.4762 26.7831 32.633 26.4046C32.7898 26.0261 33.0293 25.6875 33.334 25.4136C33.6387 25.1398 34.0008 24.9376 34.3937 24.8219L35.0312 24.6344C37.6562 23.86 37.6562 20.14 35.0312 19.3656L34.3937 19.1781C34.0008 19.0624 33.6387 18.8602 33.334 18.5864C33.0293 18.3125 32.7898 17.9739 32.633 17.5954C32.4762 17.2169 32.4061 16.8082 32.4279 16.3991C32.4497 15.99 32.5627 15.591 32.7587 15.2312L33.0775 14.65C34.3862 12.2444 31.7556 9.61375 29.3519 10.9244L28.7687 11.2413C28.409 11.4373 28.01 11.5503 27.6009 11.5721C27.1918 11.5939 26.7831 11.5238 26.4046 11.367C26.0261 11.2102 25.6875 10.9707 25.4136 10.666C25.1398 10.3613 24.9376 9.99924 24.8219 9.60625L24.6344 8.96875ZM22 27.4938C20.543 27.4938 19.1456 26.9149 18.1153 25.8847C17.0851 24.8544 16.5063 23.457 16.5063 22C16.5063 20.543 17.0851 19.1456 18.1153 18.1153C19.1456 17.0851 20.543 16.5063 22 16.5063C23.4565 16.5063 24.8534 17.0849 25.8833 18.1148C26.9133 19.1447 27.4919 20.5416 27.4919 21.9981C27.4919 23.4547 26.9133 24.8515 25.8833 25.8815C24.8534 26.9114 23.4565 27.49 22 27.49V27.4938Z" fill="#F4EDE7"/>
</g>
<defs>
<clipPath id="clip0_75_2192">
<rect width="30" height="30" fill="white" transform="translate(7 7)"/>
</clipPath>
</defs>
</svg>
