<svg width="44" height="44" viewBox="0 0 44 44" fill="none" xmlns="http://www.w3.org/2000/svg">
<g clip-path="url(#clip0_113_2143)">
<path d="M21.9999 15.9136C21.2006 15.9136 20.4092 16.071 19.6707 16.3769C18.9323 16.6828 18.2614 17.1311 17.6962 17.6962C17.1311 18.2614 16.6828 18.9323 16.3769 19.6707C16.071 20.4092 15.9136 21.2006 15.9136 21.9999C15.9136 22.7991 16.071 23.5905 16.3769 24.329C16.6828 25.0674 17.1311 25.7383 17.6962 26.3035C18.2614 26.8686 18.9323 27.317 19.6707 27.6228C20.4092 27.9287 21.2006 28.0861 21.9999 28.0861C23.614 28.0861 25.1621 27.4449 26.3035 26.3035C27.4449 25.1621 28.0861 23.614 28.0861 21.9999C28.0861 20.3857 27.4449 18.8376 26.3035 17.6962C25.1621 16.5548 23.614 15.9136 21.9999 15.9136ZM17.7886 21.9999C17.7886 20.883 18.2323 19.8118 19.0221 19.0221C19.8118 18.2323 20.883 17.7886 21.9999 17.7886C23.1167 17.7886 24.1879 18.2323 24.9777 19.0221C25.7674 19.8118 26.2111 20.883 26.2111 21.9999C26.2111 23.1167 25.7674 24.1879 24.9777 24.9777C24.1879 25.7674 23.1167 26.2111 21.9999 26.2111C20.883 26.2111 19.8118 25.7674 19.0221 24.9777C18.2323 24.1879 17.7886 23.1167 17.7886 21.9999Z" fill="#F4EDE7"/>
<path d="M25.3674 9.51798C24.3792 6.16173 19.6205 6.16173 18.6324 9.51798L18.4561 10.1161C18.3871 10.3504 18.2665 10.5663 18.1033 10.7479C17.94 10.9295 17.7381 11.0723 17.5125 11.1658C17.2869 11.2593 17.0432 11.3011 16.7993 11.2882C16.5554 11.2753 16.3175 11.2079 16.103 11.0911L15.5555 10.7911C12.4805 9.11861 9.11861 12.4824 10.793 15.5555L11.0911 16.103C11.2079 16.3175 11.2753 16.5554 11.2882 16.7993C11.3011 17.0432 11.2593 17.2869 11.1658 17.5125C11.0723 17.7381 10.9295 17.94 10.7479 18.1033C10.5663 18.2665 10.3504 18.3871 10.1161 18.4561L9.51798 18.6324C6.16173 19.6205 6.16173 24.3792 9.51798 25.3674L10.1161 25.5436C10.3504 25.6126 10.5663 25.7332 10.7479 25.8964C10.9295 26.0597 11.0723 26.2616 11.1658 26.4872C11.2593 26.7128 11.3011 26.9565 11.2882 27.2004C11.2753 27.4443 11.2079 27.6822 11.0911 27.8967L10.7911 28.4442C9.11861 31.5192 12.4805 34.883 15.5555 33.2067L16.103 32.9086C16.3175 32.7918 16.5554 32.7244 16.7993 32.7115C17.0432 32.6986 17.2869 32.7404 17.5125 32.8339C17.7381 32.9274 17.94 33.0702 18.1033 33.2518C18.2665 33.4334 18.3871 33.6493 18.4561 33.8836L18.6324 34.4817C19.6205 37.838 24.3792 37.838 25.3674 34.4817L25.5436 33.8836C25.6126 33.6493 25.7332 33.4334 25.8964 33.2518C26.0597 33.0702 26.2616 32.9274 26.4872 32.8339C26.7128 32.7404 26.9565 32.6986 27.2004 32.7115C27.4443 32.7244 27.6822 32.7918 27.8967 32.9086L28.4442 33.2086C31.5192 34.883 34.883 31.5174 33.2067 28.4442L32.9086 27.8967C32.7918 27.6822 32.7244 27.4443 32.7115 27.2004C32.6986 26.9565 32.7404 26.7128 32.8339 26.4872C32.9274 26.2616 33.0702 26.0597 33.2518 25.8964C33.4334 25.7332 33.6493 25.6126 33.8836 25.5436L34.4817 25.3674C37.838 24.3792 37.838 19.6205 34.4817 18.6324L33.8836 18.4561C33.6493 18.3871 33.4334 18.2665 33.2518 18.1033C33.0702 17.94 32.9274 17.7381 32.8339 17.5125C32.7404 17.2869 32.6986 17.0432 32.7115 16.7993C32.7244 16.5554 32.7918 16.3175 32.9086 16.103L33.2086 15.5555C34.883 12.4805 31.5174 9.11861 28.4442 10.793L27.8967 11.0911C27.6822 11.2079 27.4443 11.2753 27.2004 11.2882C26.9565 11.3011 26.7128 11.2593 26.4872 11.1658C26.2616 11.0723 26.0597 10.9295 25.8964 10.7479C25.7332 10.5663 25.6126 10.3504 25.5436 10.1161L25.3674 9.51798ZM20.4305 10.0486C20.8917 8.48298 23.108 8.48298 23.5692 10.0486L23.7455 10.6467C23.8936 11.1494 24.1524 11.6125 24.5028 12.0022C24.8533 12.3918 25.2864 12.6981 25.7706 12.8986C26.2548 13.099 26.7777 13.1886 27.301 13.1607C27.8243 13.1328 28.3347 12.9882 28.7949 12.7374L29.3405 12.4374C30.773 11.6592 32.3405 13.2249 31.5605 14.6592L31.2624 15.2067C31.0119 15.6669 30.8676 16.1773 30.84 16.7005C30.8124 17.2236 30.9023 17.7464 31.1029 18.2303C31.3035 18.7143 31.6099 19.1472 31.9995 19.4974C32.3892 19.8476 32.8523 20.1062 33.3549 20.2542L33.9511 20.4305C35.5167 20.8917 35.5167 23.108 33.9511 23.5692L33.353 23.7455C32.8503 23.8936 32.3872 24.1524 31.9975 24.5028C31.6079 24.8533 31.3016 25.2864 31.1011 25.7706C30.9007 26.2548 30.8111 26.7777 30.839 27.301C30.8669 27.8243 31.0115 28.3347 31.2624 28.7949L31.5624 29.3405C32.3405 30.773 30.7749 32.3405 29.3405 31.5605L28.7949 31.2624C28.3346 31.0116 27.8241 30.867 27.3007 30.8392C26.7773 30.8114 26.2543 30.9012 25.7701 31.1018C25.2859 31.3025 24.8527 31.609 24.5024 31.9988C24.1521 32.3887 23.8934 32.852 23.7455 33.3549L23.5692 33.9511C23.108 35.5167 20.8917 35.5167 20.4305 33.9511L20.2542 33.353C20.106 32.8506 19.8473 32.3877 19.497 31.9983C19.1467 31.6088 18.7137 31.3026 18.2298 31.1022C17.7458 30.9018 17.2232 30.8121 16.7001 30.8398C16.177 30.8675 15.6668 31.0119 15.2067 31.2624L14.6592 31.5624C13.2267 32.3405 11.6592 30.7749 12.4392 29.3405L12.7374 28.7949C12.9885 28.3347 13.1335 27.8241 13.1615 27.3005C13.1896 26.777 13.1001 26.2539 12.8996 25.7694C12.6991 25.285 12.3927 24.8516 12.0029 24.5011C11.613 24.1505 11.1497 23.8917 10.6467 23.7436L10.0486 23.5674C8.48298 23.1061 8.48298 20.8899 10.0486 20.4286L10.6467 20.2524C11.1489 20.1041 11.6115 19.8454 12.0007 19.4952C12.39 19.145 12.696 18.7123 12.8965 18.2286C13.0969 17.7449 13.1866 17.2225 13.1591 16.6996C13.1315 16.1768 12.9875 15.6667 12.7374 15.2067L12.4374 14.6592C11.6592 13.2267 13.2249 11.6592 14.6592 12.4392L15.2067 12.7374C15.6668 12.9878 16.177 13.1322 16.7001 13.1599C17.2232 13.1876 17.7458 13.098 18.2298 12.8975C18.7137 12.6971 19.1467 12.3909 19.497 12.0015C19.8473 11.612 20.106 11.1491 20.2542 10.6467L20.4305 10.0486Z" fill="#F4EDE7"/>
</g>
<defs>
<clipPath id="clip0_113_2143">
<rect width="30" height="30" fill="white" transform="translate(7 7)"/>
</clipPath>
</defs>
</svg>
