<svg width="30" height="30" viewBox="0 0 30 30" fill="none" xmlns="http://www.w3.org/2000/svg">
<path d="M13.125 6.25H16.875C17.0408 6.25 17.1997 6.31585 17.3169 6.43306C17.4342 6.55027 17.5 6.70924 17.5 6.875V8.125H12.5V6.875C12.5 6.70924 12.5658 6.55027 12.6831 6.43306C12.8003 6.31585 12.9592 6.25 13.125 6.25ZM18.75 8.125V6.875C18.75 6.37772 18.5525 5.90081 18.2008 5.54917C17.8492 5.19754 17.3723 5 16.875 5H13.125C12.6277 5 12.1508 5.19754 11.7992 5.54917C11.4475 5.90081 11.25 6.37772 11.25 6.875V8.125H8.1325C8.12833 8.12496 8.12417 8.12496 8.12 8.125H6.875C6.70924 8.125 6.55027 8.19085 6.43306 8.30806C6.31585 8.42527 6.25 8.58424 6.25 8.75C6.25 8.91576 6.31585 9.07473 6.43306 9.19194C6.55027 9.30915 6.70924 9.375 6.875 9.375H7.5475L8.61375 22.7C8.66403 23.3265 8.94844 23.9111 9.41034 24.3373C9.87224 24.7635 10.4777 25.0001 11.1063 25H18.8937C19.5223 25.0001 20.1278 24.7635 20.5897 24.3373C21.0516 23.9111 21.336 23.3265 21.3863 22.7L22.4525 9.375H23.125C23.2908 9.375 23.4497 9.30915 23.5669 9.19194C23.6842 9.07473 23.75 8.91576 23.75 8.75C23.75 8.58424 23.6842 8.42527 23.5669 8.30806C23.4497 8.19085 23.2908 8.125 23.125 8.125H21.8813C21.8771 8.12496 21.8729 8.12496 21.8687 8.125H18.75ZM21.1975 9.375L20.14 22.6C20.1149 22.9132 19.9727 23.2055 19.7417 23.4186C19.5108 23.6318 19.208 23.7501 18.8937 23.75H11.1063C10.792 23.7501 10.4892 23.6318 10.2583 23.4186C10.0273 23.2055 9.88514 22.9132 9.86 22.6L8.8025 9.375H21.1975ZM11.8388 10.625C12.0042 10.6154 12.1666 10.672 12.2904 10.7821C12.4141 10.8923 12.4891 11.0471 12.4988 11.2125L13.1238 21.8375C13.1303 22.001 13.0725 22.1605 12.9628 22.2818C12.853 22.4032 12.7001 22.4766 12.5368 22.4865C12.3734 22.4963 12.2128 22.4417 12.0893 22.3344C11.9658 22.227 11.8893 22.0756 11.8762 21.9125L11.25 11.2875C11.2449 11.2054 11.2561 11.1231 11.2829 11.0453C11.3097 10.9675 11.3516 10.8958 11.4062 10.8343C11.4608 10.7727 11.527 10.7225 11.601 10.6866C11.675 10.6507 11.7554 10.6298 11.8375 10.625H11.8388ZM18.1613 10.625C18.2434 10.6298 18.3238 10.6507 18.3978 10.6866C18.4718 10.7225 18.538 10.7727 18.5926 10.8343C18.6471 10.8958 18.689 10.9675 18.7158 11.0453C18.7426 11.1231 18.7538 11.2054 18.7487 11.2875L18.1237 21.9125C18.1204 21.9956 18.1005 22.0771 18.0653 22.1524C18.0301 22.2277 17.9802 22.2952 17.9185 22.3509C17.8569 22.4067 17.7847 22.4496 17.7063 22.4771C17.6279 22.5047 17.5447 22.5163 17.4617 22.5113C17.3788 22.5063 17.2976 22.4848 17.2231 22.4481C17.1485 22.4113 17.082 22.3601 17.0275 22.2974C16.973 22.2346 16.9315 22.1616 16.9055 22.0827C16.8796 22.0037 16.8696 21.9204 16.8763 21.8375L17.5013 11.2125C17.5109 11.0471 17.5859 10.8923 17.7096 10.7821C17.8334 10.672 17.9958 10.6154 18.1613 10.625ZM15 10.625C15.1658 10.625 15.3247 10.6908 15.4419 10.8081C15.5592 10.9253 15.625 11.0842 15.625 11.25V21.875C15.625 22.0408 15.5592 22.1997 15.4419 22.3169C15.3247 22.4342 15.1658 22.5 15 22.5C14.8342 22.5 14.6753 22.4342 14.5581 22.3169C14.4408 22.1997 14.375 22.0408 14.375 21.875V11.25C14.375 11.0842 14.4408 10.9253 14.5581 10.8081C14.6753 10.6908 14.8342 10.625 15 10.625Z" fill="#F4EDE7"/>
</svg>
