<svg width="45" height="45" viewBox="0 0 45 45" fill="none" xmlns="http://www.w3.org/2000/svg">
<g clip-path="url(#clip0_144_2076)">
<path d="M0 21.5447C0 21.5447 0.403631 1.38154 22.0098 0.0687256V9.25564C22.0098 9.25564 10.9036 9.61324 9.69204 21.5447H0Z" fill="#006EB3"/>
<path d="M0 22.698H9.61173C9.61173 22.698 9.77305 33.6351 22.0098 35.0669V44.9298C22.0098 44.9298 1.87779 44.6313 0 22.698Z" fill="#FF9722"/>
<path d="M23.0887 35.0772L23.1543 45C23.1543 45 43.6278 44.6905 44.9972 22.6286L35.4253 22.5055C35.4253 22.5055 35.5028 34.2231 23.0894 35.0779H23.0887V35.0772Z" fill="#2CA053"/>
<path d="M23.1494 0.000687695L23.0894 9.28663C23.0894 9.28663 34.2961 9.33683 35.3687 21.553L45 21.6129C45 21.6129 45.0677 1.70823 23.1494 0V0.000687695Z" fill="#19A49D"/>
</g>
<defs>
<clipPath id="clip0_144_2076">
<rect width="45" height="45" fill="white"/>
</clipPath>
</defs>
</svg>
